<?xml version="1.0" encoding="utf-8"?>
<!-- Generator: Adobe Illustrator 16.0.0, SVG Export Plug-In . SVG Version: 6.00 Build 0)  -->
<!DOCTYPE svg PUBLIC "-//W3C//DTD SVG 1.1//EN" "http://www.w3.org/Graphics/SVG/1.1/DTD/svg11.dtd">
<svg version="1.1" id="Layer_1" xmlns="http://www.w3.org/2000/svg" xmlns:xlink="http://www.w3.org/1999/xlink" x="0px" y="0px"
	 width="377.3px" height="649.3px" viewBox="0 0 377.3 649.3" style="enable-background:new 0 0 377.3 649.3;" xml:space="preserve"
	>
<style type="text/css">
<![CDATA[
	.st0{clip-path:url(#SVGID_2_);fill:#A6A6A6;}
	.st1{clip-path:url(#SVGID_2_);fill:#141414;}
	.st2{clip-path:url(#SVGID_2_);fill:#808080;}
	.st3{clip-path:url(#SVGID_2_);fill:#818284;}
	.st4{clip-path:url(#SVGID_2_);fill:#303030;}
	.st5{clip-path:url(#SVGID_2_);fill:#353535;}
]]>
</style>
<g>
	<defs>
		<rect id="SVGID_1_" x="13.5" y="34.1" width="353.3" height="575.6"/>
	</defs>
	<clipPath id="SVGID_2_">
		<use xlink:href="#SVGID_1_"  style="overflow:visible;"/>
	</clipPath>
	<path class="st4" d="M190.4,34.3c1.8,3,3.7,6.1,5.5,9.1c39.3,65.2,78.5,130.3,117.8,195.5c17.4,28.9,34.9,57.9,52.3,86.8
		c0.2,0.4,0.5,0.8,0.7,1.2c0.1,0.2,0,0.4-0.3,0.4c-3-1.2-5.8-2.6-8.7-3.9c-9-4.1-17.9-8.1-26.9-12.2c-8.6-3.9-17.3-7.9-25.9-11.8
		c-9.6-4.4-19.2-8.7-28.8-13c-8.6-3.9-17.3-7.9-25.9-11.8s-17.3-7.8-25.9-11.8c-7.4-3.4-14.8-6.7-22.2-10.1c-3.6-1.7-7.3-3.3-10.9-5
		c-0.7-0.3-1.5-0.6-1.7-1.5c-0.2-0.8-0.2-1.7-0.2-2.5c0-68.8,0-137.5,0-206.3c0-1.1,0-2.2,0.5-3.2l0,0
		C190.2,34.2,190.3,34.2,190.4,34.3"/>
	<path class="st3" d="M190.1,34.3c0,0.5,0,1,0,1.6c0,69.6,0,139.2,0,208.8c0,0.7,0,1.5,0,2.2c0,0.1-0.1,0.1-0.1,0.2
		c-3,1.8-6.3,3-9.5,4.5c-7.5,3.4-15,6.8-22.5,10.2c-8.8,4-17.6,8-26.5,12c-7.5,3.4-15,6.8-22.5,10.2c-8.6,3.9-17.3,7.8-25.9,11.8
		c-7.4,3.4-14.8,6.7-22.2,10.1c-8.8,4-17.6,8-26.3,12c-6.5,3-13.1,5.9-19.6,8.9c-0.5,0.2-1,0.4-1.5,0.6c-0.1-0.1-0.2-0.1-0.2-0.2
		c0-0.1,0-0.3,0.1-0.4c3.8-6.3,7.6-12.5,11.4-18.8c6.7-11,13.3-22.1,20-33.1c6.6-10.9,13.1-21.8,19.7-32.7
		c7.5-12.5,15-24.9,22.6-37.4c6.7-11.1,13.4-22.2,20-33.3c7.5-12.4,15-24.9,22.5-37.3c6.7-11,13.3-22.1,20-33.1
		c7.5-12.4,15-24.9,22.5-37.3c5.7-9.5,11.4-18.9,17.1-28.4C189.5,35,189.6,34.5,190.1,34.3"/>
	<path class="st1" d="M190.1,246.9c0.2,0.1,0.4,0.1,0.6,0.2c1.8,0.8,3.6,1.7,5.4,2.5c2.8,1.3,5.6,2.5,8.4,3.8
		c1.2,0.6,2.5,1.2,3.7,1.7c1.8,0.8,3.5,1.6,5.3,2.4c2.8,1.2,5.5,2.5,8.3,3.7c1.2,0.6,2.4,1.2,3.7,1.7c1.8,0.8,3.5,1.6,5.3,2.4
		c2.8,1.2,5.5,2.5,8.3,3.7c1.3,0.6,2.6,1.2,3.9,1.8c1.7,0.8,3.4,1.6,5.1,2.4c2.8,1.2,5.5,2.5,8.3,3.7c1.2,0.6,2.4,1.2,3.7,1.7
		c1.7,0.7,3.4,1.6,5.1,2.4c2.8,1.3,5.6,2.5,8.4,3.8c1.3,0.6,2.6,1.2,3.8,1.8c2.8,1.2,5.5,2.5,8.3,3.8c3.5,1.6,6.9,3.2,10.4,4.7
		c2.3,1,4.6,2.1,6.9,3.1c3.5,1.6,6.9,3.2,10.4,4.7c2.3,1,4.6,2.1,6.9,3.1c3.5,1.6,6.9,3.2,10.4,4.7c3.5,1.6,6.9,3.2,10.4,4.7
		c2.3,1,4.6,2.1,6.9,3.1c3.5,1.6,6.9,3.2,10.4,4.7c2.3,1,4.6,2.1,6.8,3.1c0.5,0.2,1,0.4,1.2,0.9c-0.4,0.3-0.9,0.6-1.3,0.9
		c-57.9,34.2-115.7,68.4-173.6,102.6c-0.5,0.3-0.9,0.8-1.5,0.7c-0.4-0.5-0.5-1-0.5-1.6c0-0.6,0-1.2,0-1.7c0-59.3,0-118.6,0-177.9
		C189.6,249.1,189.3,247.9,190.1,246.9L190.1,246.9z"/>
	<path class="st5" d="M190.1,246.9c0,0.5,0,0.9,0,1.4c0,60.5,0,121.1,0,181.6c0,0.5,0,1,0,1.6c-0.6,0-1-0.4-1.5-0.7
		c-8.9-5.2-17.8-10.5-26.6-15.7c-48.9-28.9-97.8-57.8-146.8-86.7c-0.5-0.3-1-0.6-1.5-0.9c0.1-0.5,0.5-0.6,0.9-0.8
		c2-1,4.1-1.9,6.1-2.8c1.6-0.7,3.2-1.4,4.7-2.1c5.2-2.4,10.5-4.8,15.7-7.2c4.6-2.1,9.1-4.2,13.7-6.2c5.8-2.6,11.6-5.3,17.4-7.9
		c4.6-2.1,9.1-4.2,13.7-6.2c4.7-2.1,9.3-4.2,14-6.4c4.5-2.1,9-4.1,13.6-6.2c5.1-2.3,10.2-4.6,15.3-6.9c2.9-1.3,5.8-2.7,8.7-4
		c4-1.8,7.9-3.6,11.9-5.4c2.7-1.2,5.3-2.4,8-3.6c4.2-1.9,8.5-3.8,12.7-5.8c2.7-1.2,5.4-2.5,8.1-3.7c3.8-1.7,7.5-3.4,11.3-5.1
		C189.8,246.9,189.9,246.9,190.1,246.9"/>
	<path class="st4" d="M366.3,361.7c-2,2.8-4,5.7-6,8.5c-53,74.6-105.9,149.2-158.9,223.7c-3.4,4.7-6.7,9.5-10.1,14.2
		c-0.3,0.4-0.6,0.8-0.9,1.3c-0.8-0.2-0.6-0.8-0.7-1.4c-0.1-0.6-0.1-1.3-0.1-1.9c0-45.9,0-91.9,0-137.8c0-1.1-0.3-2.2,0.5-3.2
		c49.2-29,98.3-58.1,147.5-87.1c9.1-5.3,18.1-10.7,27.2-16c0.4-0.3,0.9-0.5,1.4-0.7C366.3,361.4,366.4,361.6,366.3,361.7"/>
	<path class="st3" d="M190.1,465.2c0,0.7,0,1.4,0,2c0,46.8,0,93.5,0,140.3c0,0.7-0.3,1.4,0.3,1.9c0,0.2-0.2,0.3-0.3,0.2
		c-0.2-0.1-0.3-0.3-0.4-0.4c-4.3-6-8.5-12-12.8-18.1c-6.6-9.3-13.2-18.5-19.7-27.8c-4.9-6.9-9.8-13.8-14.7-20.8
		c-6.1-8.6-12.2-17.2-18.3-25.8c-4.8-6.7-9.5-13.4-14.3-20.1c-7.3-10.3-14.6-20.6-21.9-30.9c-6-8.5-12.1-17-18.1-25.5
		c-9.8-13.8-19.5-27.5-29.3-41.3C32,387,23.4,375,14.9,362.9c-0.1-0.2-0.2-0.4-0.3-0.5c0-0.5,0.2-0.6,0.7-0.4
		c3.2,1.9,6.4,3.8,9.6,5.6c7.9,4.7,15.9,9.4,23.8,14.1c6.4,3.8,12.7,7.5,19.1,11.3c8.5,5,16.9,10,25.4,15
		c10.1,6,20.2,11.9,30.3,17.9c11.5,6.8,23,13.6,34.5,20.4c8.7,5.2,17.5,10.3,26.2,15.5c1.7,1,3.4,2,5.1,3
		C189.6,465,189.9,465.1,190.1,465.2"/>
	<path class="st0" d="M15.2,362c-0.3,0-0.5,0.1-0.7,0.4c-0.4-0.3-0.6-0.6-0.8-1c0.2-0.2,0.4-0.1,0.5,0C14.6,361.5,15,361.6,15.2,362
		"/>
	<path class="st2" d="M366.3,361.7c0-0.1,0-0.3-0.1-0.4c0.1-0.2,0.2-0.3,0.4-0.2c0.2,0.1,0,0.3,0,0.4
		C366.5,361.6,366.4,361.6,366.3,361.7"/>
	<path class="st3" d="M193.8,34.3c-0.1,0-0.2,0-0.3,0c0-0.1,0.1-0.2,0.1-0.2C193.8,34.1,193.8,34.2,193.8,34.3"/>
</g>
</svg>
