<?xml version="1.0" encoding="utf-8"?>
<!-- Generator: Adobe Illustrator 16.0.0, SVG Export Plug-In . SVG Version: 6.00 Build 0)  -->
<!DOCTYPE svg PUBLIC "-//W3C//DTD SVG 1.1//EN" "http://www.w3.org/Graphics/SVG/1.1/DTD/svg11.dtd">
<svg version="1.1" id="Layer_1" xmlns="http://www.w3.org/2000/svg" xmlns:xlink="http://www.w3.org/1999/xlink" x="0px" y="0px"
	 width="1101.5px" height="7px" viewBox="0 0 1101.5 7" enable-background="new 0 0 1101.5 7" xml:space="preserve">
<rect x="1.5" opacity="0.8" fill="none" width="469.7" height="10.3"/>
<path d="M308.9,9.6C308.9,9.6,309,9.6,308.9,9.6C308.9,9.6,308.9,9.6,308.9,9.6C308.9,9.6,308.9,9.6,308.9,9.6z"/>
<path d="M642.9,0.3c-0.4,0-0.9,0-1.4,0C642,0.3,642.4,0.3,642.9,0.3z"/>
<path fill="#00426A" d="M5.5,5.9C8.9,6,14.8,6,20.4,6C16.1,5.9,11.5,5.8,5.5,5.9z"/>
<path fill="#00426A" d="M20.5,6C20.5,6,20.5,6,20.5,6c0,0,0,0-0.1,0C20.4,6,20.4,6,20.5,6z"/>
<path fill="#00426A" d="M1098.8,1c-1.4,0-3,0-4.6,0C1095.8,1,1097.4,1,1098.8,1z"/>
<path opacity="0.8" fill="#002B54" d="M289.7,6.5l0.8-0.2c13.2,0,3.8,0.2,16,0.2c4.8-0.3,20.2,0,24.5-0.1c0,0,0.3,0,0.9,0s1.3,0,2,0
	c1.4,0,2.8,0,2.6,0.1c1.8-0.2,6.1,0,9.9-0.1c1.4,0-1,0-2-0.1l8.6-0.1c3.4,0.1,4.2,0.1,0.5,0.2c22.5,0,130.7,0.2,155,0.2
	c-3.1-0.1-10.6,0-13.5-0.2c6.4-0.1,9.5,0,12.3-0.1c2.5,0.3,14.1,0.1,19,0.3l1.8-0.2l3.2,0.1c28.2-0.1,6.5-0.1,31.5,0
	c14.5,0,21.4-0.2,29.4-0.1c-1.2,0-4.4-0.1-0.6-0.1c0.6,0.1,10-0.1,11.8,0c3.7,0,15.6,0,11.6-0.2c2,0.1,12.6,0.1,6.3,0.2
	c3.6,0,7.1,0,9.6,0l-4.6-0.1c12.1,0,18.7,0.1,26.6,0l-4.5-0.1c7.2,0,13.3,0,16.1,0.2l-7.4,0.1c12,0,19.2,0,29.2-0.1l-3.6,0
	C695.6,6.1,762.3,6,774,5.7l-5.4-0.1l10.1-0.1c-1.2,0-4.9,0.5-5.9,0.4c21.6,0,134.2,0,154.2,0c8.1,0.1,1.5,0.2,1.4,0.2
	c9.8,0,4.2-0.1,12.6-0.1c2.3,0-0.5,0.1-1.8,0.1c3.7,0,7,0,7.3,0c-4.6-0.1-2.6-0.2-4.6-0.3l10.7,0l-0.5,0.1c2.4,0,6.1-0.3,16.6-0.2
	c17.8,0,37.1,0,55,0.1c-0.3,0.1-4,0.1-7.8,0.1c2.4,0,6.1,0,8.3,0c-4.3-0.1,7.5-0.1,4.1-0.1c13.1-0.3,30,0,41.6-0.2
	c0.5-0.1,6.7-1.2,12.8-2.2c3-0.5,6-1.1,8.3-1.5c1.1-0.2,2-0.4,2.7-0.5c0.7-0.1,1-0.2,1-0.3c3.6,0,7.2,0,8.3,0
	c-0.9-0.1-8-0.1-11.7-0.1l-0.6,0.2c-8.6,0.1-2-0.1-10.4-0.1c-0.4-0.1,7.3-0.2,14.1-0.2c-6.1,0-12.3-0.1-14.8,0
	c-5.8-0.1,0.6-0.2-6.3-0.2c-5,0-11.5,0.2-17.2,0.1l0.1,0c-13.8-0.1-21.2,0.2-33.8,0.1l1.4,0c-4.5,0-13.3,0-21.3-0.1
	c2.3,0,4.3,0.1-0.5,0.1c-9.3-0.1-15.6,0-22.4-0.1L972.9,1c-32.3,0-159.8,0.1-192.2,0.1l1.3,0c-49.4,0-150.8,0.1-201.9,0.2
	c-7.9-0.1-18.8-0.1-27-0.1c4.6,0.1,3,0.1-0.6,0.1c-25.1,0-1.7,0.1-27.1,0.1c-29.2,0.1-141.1-0.1-167-0.2c-13.9,0.2-31.3,0-45,0.1
	l1.4,0c-14.7,0-97.7-0.1-114.7-0.1l2.3,0c-14.9,0.1-12.8-0.1-24.5-0.2c1.5,0.2-11.2,0.3-16.1,0.3l0.2,0c-7.3,0-23.9,0.1-36,0.2
	l0.5-0.1c-10.1,0.1-29,0.1-36.3,0.1C73.6,1.5,48,1.3,25.8,1.4L11.5,1.1l-2.1,0c0,0-23.1,3.8,6.2,4.6l-0.5,0.1l5.8,0
	c7,0.1,10.2-0.1,9.7,0l-9.5,0c7,0,2.1,0.1-0.6,0.2c2.9,0,5.7,0,8.1,0.1c1.4,0-1,0-2.1-0.1c3.8,0,9-0.1,13.6-0.1
	c7.1,0,0.5,0.2,8.8,0.2c44,0.1,86.6,0.2,131,0.2c1,0-0.2,0-1.5,0.1c13.4,0,25.3,0,37.5-0.1c3.4,0.1,4.3,0.1,5.3,0.2
	c-1,0,15.8-0.1,33.1-0.1C271.5,6.5,289.1,6.5,289.7,6.5z"/>
</svg>
