<?xml version="1.0" encoding="utf-8"?>
<!-- Generator: Adobe Illustrator 16.0.0, SVG Export Plug-In . SVG Version: 6.00 Build 0)  -->
<!DOCTYPE svg PUBLIC "-//W3C//DTD SVG 1.1//EN" "http://www.w3.org/Graphics/SVG/1.1/DTD/svg11.dtd">
<svg version="1.1" id="Layer_1" xmlns="http://www.w3.org/2000/svg" xmlns:xlink="http://www.w3.org/1999/xlink" x="0px" y="0px"
	 width="43px" height="72px" viewBox="0 0 43 72" enable-background="new 0 0 43 72" xml:space="preserve">
<path d="M34.2,31.2L34.2,31.2l7.6-4.6l-0.3-8.4c-0.1-2.7-1-5.3-2.7-7.5c-2-2.7-4.9-4.5-8.2-5.1C28,2.7,24.3,1.2,20.5,1.4
	c-3.7,0.1-7.3,1.8-9.7,4.7c-6,1.5-10.3,7.2-10.1,13.4c0,1.3,0.3,2.6,0.8,3.9C1.1,24.8,1,26.2,1,27.6c0.1,3,1.4,5.9,3.4,7.9
	c2.4,2.3,5.8,4.1,8.8,5.6c3.3,1.6,6.8,2.5,9.5,5c0.9,0.8,1.6,1.9,2.1,3.1c-0.4,1.4-1.1,2.6-2,3.8c-1.4,0.3-2.9,0.4-4.4,0.2
	c-0.3-0.4-0.6-0.7-0.8-0.9c-1.5-2-2.3-4.3-2.4-6.8l0-0.4l-7.7-4.1l-0.1-0.1L0,45.6L0.3,54c0.1,2.7,1,5.3,2.7,7.5
	c2,2.7,4.9,4.5,8.2,5.1c2.6,2.7,6.3,4.2,10.1,4.1c3.7-0.1,7.3-1.8,9.7-4.7c6-1.5,10.3-7.2,10.1-13.4c0-1.3-0.3-2.6-0.8-3.9
	c0.4-1.4,0.6-2.8,0.5-4.2c-0.1-3-1.4-5.9-3.4-7.9c-1-0.9-2-1.8-3.2-2.5c-3.9-2.3-8.2-3.7-12-5.9C21,27.6,20,26.9,19,26
	c-0.9-0.8-1.6-1.9-2.1-3.1c0.4-1.4,1.1-2.6,2-3.8c1.4-0.3,2.9-0.4,4.4-0.2c0.3,0.4,0.6,0.7,0.8,0.9c1.5,2,2.3,4.3,2.4,6.8l0,0.4
	L34.2,31.2z M14,45.8c0.2,2.5,1,4.8,2.4,6.8c-2.3-0.8-4.3-2.2-5.8-4.2c-1.2-1.6-2-3.6-2.3-5.7L14,45.8z M7,42.8
	c0.3,2.4,1.1,4.6,2.6,6.5c2.1,2.8,5.1,4.6,8.5,5.2c0.9,0.1,1.8,0.2,2.7,0.2c0.2,0,0.5,0,0.7,0c-0.3,0.3-0.7,0.6-1,0.8
	c-1.4,1-3,1.7-4.6,2c-0.6,0.1-1.3,0.2-2,0.2c-4,0.1-7.7-1.7-10.1-4.9c-1.4-1.9-2.2-4.1-2.4-6.4L7,42.8z M11.6,65.4
	c-3-0.5-5.8-2.2-7.6-4.7c-1.5-2-2.3-4.4-2.4-6.8l-0.1-2.3c0.3,0.6,0.7,1.2,1.1,1.8C5.3,57,9.5,59,13.9,58.9c0.7,0,1.5-0.1,2.2-0.2
	c1.9-0.4,3.6-1.1,5.1-2.2c1-0.7,1.8-1.5,2.6-2.4c0.7-0.9,1.3-1.8,1.8-2.8c0.1,0.4,0.2,0.9,0.2,1.3c0,0.2,0,0.5,0.1,0.7
	c0.1,1.5-0.2,2.9-0.6,4.3c-0.8,2.4-2.4,4.5-4.5,6c-1.9,1.4-4.2,2.1-6.5,2.2C13.3,65.6,12.4,65.6,11.6,65.4z M30.1,65.1
	c-2.2,2.7-5.4,4.3-8.9,4.4c-2.8,0.1-5.6-0.8-7.8-2.5c0.3,0,0.5,0,0.8,0c2.6-0.1,5.1-0.9,7.2-2.4c2.3-1.6,4.1-4,5-6.6
	c0.5-1.5,0.8-3.1,0.7-4.8c0-0.3,0-0.5-0.1-0.8c-0.1-1.2-0.4-2.3-0.8-3.3c-0.4-1-0.9-1.9-1.6-2.7c0.4,0.2,0.8,0.5,1.2,0.7
	c1.6,1,2.9,1.9,3.9,2.9l0.1,0.1c1.6,1.6,2.7,3.9,3,6.3c0,0.2,0,0.5,0,0.7C33,59.9,32,62.8,30.1,65.1z M32.3,64.2
	c1.3-2.2,2-4.7,1.9-7.3c0-0.3,0-0.5-0.1-0.8c-0.3-2.7-1.5-5.3-3.4-7.1l-0.2-0.2c-3.6-3.4-8.4-5.2-12.9-7.2c-1.3-0.6-2.6-1.1-3.9-1.7
	c-2.9-1.4-6.1-3.2-8.5-5.4c-1.8-1.7-3-4.3-3-7c0-0.8,0-1.5,0.1-2.3c0.5,0.8,1.1,1.5,1.7,2.2c1.1,1.1,2.6,2.1,4.3,3.2
	c1.6,1,3.4,1.9,4.5,2.4c5.1,2.5,10.3,4.8,15.4,7.3c1.5,0.7,2.9,1.5,4.3,2.3c1.6,1,3,2,4.1,3c0.9,0.9,1.7,2.1,2.2,3.4
	c0.5,1.1,0.8,2.4,0.8,3.6C39.9,57.7,36.9,62.3,32.3,64.2z M19.8,28.7c2.1,1,4.1,2,6.2,2.9c3.7,1.6,7.5,3.2,10.4,6c1.8,1.7,3,4.3,3,7
	c0,0.8,0,1.5-0.1,2.3c-0.5-0.8-1.1-1.6-1.7-2.2c-1.1-1.1-2.6-2.1-4.3-3.2c-4.9-3-10.3-5.5-15.6-7.8c-2.9-1.3-5.9-2.6-8.6-4.3
	c-1.6-1-3-2-4.1-3c-0.9-0.9-1.7-2.1-2.2-3.4C2.3,22,2.1,20.7,2,19.5C1.9,14.4,4.8,9.8,9.5,7.9c-1.3,2.2-2,4.7-1.9,7.3
	c0,0.3,0,0.5,0.1,0.8c0.3,2.7,1.5,5.3,3.4,7.1l0.2,0.2c1.1,1,2.5,2,4.1,3C16.6,27.1,18.1,27.9,19.8,28.7z M17.2,25.9
	c-0.4-0.2-0.8-0.5-1.2-0.7c-1.6-1-2.9-1.9-3.9-2.9l-0.1-0.1c-1.6-1.6-2.7-3.9-3-6.3c0-0.2,0-0.5-0.1-0.7c-0.1-3,0.9-5.8,2.8-8.1
	c2.2-2.7,5.4-4.3,8.9-4.4c2.8-0.1,5.6,0.8,7.8,2.5c-0.3,0-0.5,0-0.8,0c-2.6,0.1-5.1,0.9-7.2,2.4c-2.3,1.6-4.1,4-5,6.6
	c-0.5,1.5-0.8,3.1-0.7,4.8c0,0.3,0,0.5,0.1,0.8c0.1,1.2,0.4,2.3,0.8,3.3C16,24.1,16.5,25.1,17.2,25.9z M18,18.1
	c-0.7,0.9-1.3,1.8-1.8,2.8c-0.1-0.4-0.2-0.9-0.2-1.3c0-0.2,0-0.5-0.1-0.7c-0.1-1.5,0.2-2.9,0.6-4.3c0.8-2.4,2.4-4.5,4.5-6
	c1.9-1.4,4.2-2.1,6.5-2.2c0.9,0,1.7,0,2.5,0.2c3,0.5,5.8,2.2,7.6,4.7c1.5,2,2.3,4.4,2.4,6.8l0.1,2.3c-0.3-0.6-0.7-1.2-1.1-1.8
	c-2.6-3.5-6.8-5.5-11.2-5.4c-0.7,0-1.5,0.1-2.2,0.2c-1.9,0.4-3.6,1.1-5.1,2.2C19.7,16.4,18.8,17.2,18,18.1z M23.7,17.7
	c-0.9-0.1-1.8-0.2-2.7-0.2c-0.2,0-0.5,0-0.7,0c0.3-0.3,0.7-0.6,1-0.8c1.4-1,3-1.7,4.6-2c0.6-0.1,1.3-0.2,2-0.2
	c4-0.1,7.7,1.7,10.1,4.9c1.4,1.9,2.2,4.1,2.4,6.4l-5.6,3.5c-0.3-2.4-1.2-4.6-2.6-6.5C30.2,20.1,27.2,18.3,23.7,17.7z M25.4,19.5
	c2.3,0.8,4.3,2.2,5.8,4.2c1.2,1.6,2,3.6,2.3,5.7l-5.7-3C27.6,23.8,26.8,21.5,25.4,19.5z"/>
</svg>
